<?xml version="1.0" encoding="UTF-8" standalone="no"?>
<!-- Created with Inkscape (http://www.inkscape.org/) -->

<svg
   width="158.42744mm"
   height="158.5515mm"
   viewBox="0 0 158.42744 158.5515"
   version="1.1"
   id="svg1"
   xml:space="preserve"
   xmlns="http://www.w3.org/2000/svg"
   xmlns:svg="http://www.w3.org/2000/svg"><defs
     id="defs1" /><g
     id="layer1"
     transform="translate(-23.142047,-64.182662)"><ellipse
       style="fill:#ffffff;stroke-width:0.1;stroke-linecap:round;stroke-linejoin:round"
       id="path2"
       cx="102.35577"
       cy="143.4584"
       rx="79.213722"
       ry="79.275749" /><path
       style="fill:#000000"
       d="M 95.982251,222.58967 C 67.937709,220.37325 42.72032,202.9793 30.665492,177.53677 c -3.471926,-7.32774 -5.585618,-14.34263 -6.9432,-23.043 -0.498906,-3.19734 -0.583718,-4.80851 -0.580139,-11.02085 0.0035,-6.15971 0.0932,-7.85059 0.58433,-11.02085 2.12039,-13.68718 6.749493,-25.08759 14.50494,-35.72233 12.662919,-17.36416 31.132464,-28.49009 52.877952,-31.85331 4.807448,-0.74354 14.822335,-0.92896 19.579165,-0.3625 18.78835,2.23737 34.67716,9.84681 47.74785,22.86732 12.42715,12.37944 20.246,28.26304 22.66239,46.0375 0.55546,4.08583 0.63796,14.65821 0.14763,18.91771 -4.15314,36.07832 -32.00266,64.62167 -68.03345,69.7284 -4.14459,0.58742 -13.01856,0.8577 -17.230709,0.52481 z m 12.060459,-6.89857 c 14.80476,-1.26924 28.55164,-6.77022 40.08287,-16.03968 2.87876,-2.31411 8.08355,-7.51755 10.40978,-10.40709 6.5443,-8.12902 11.57318,-18.13529 14.02781,-27.91204 1.37814,-5.48906 2.28683,-12.54424 2.28683,-17.75516 0,-19.16569 -7.71651,-37.75884 -21.29109,-51.30146 C 141.82516,80.56953 127.725,73.70361 110.82083,71.46482 107.58137,71.03579 97.135566,71.03501 93.8875,71.46382 76.985656,73.69388 62.855452,80.57561 51.15603,92.27503 39.456609,103.97446 32.574872,118.10466 30.344815,135.0065 c -0.428555,3.24807 -0.427782,13.69387 0.0013,16.93334 2.731365,20.6234 12.841428,37.90475 29.27789,50.04533 13.612161,10.05445 31.604603,15.14768 48.418755,13.70618 z M 86.611458,182.56528 v -7.21007 l -12.633854,-0.0687 -12.633854,-0.0687 v -31.74487 -31.74487 l 12.633854,-0.0687 12.633854,-0.0687 v -7.20999 -7.20998 l 5.357812,9e-5 5.357813,9e-5 v 14.753 14.753 l -5.227942,5.22304 c -2.875368,2.87267 -5.286384,5.22311 -5.357813,5.22319 -0.07143,8e-5 -0.12987,-3.24437 -0.12987,-7.2099 v -7.21004 l -7.342188,-0.0703 -7.342187,-0.0703 v 20.91045 20.91045 l 7.342187,-0.0703 7.342188,-0.0703 v -8.40068 c 0,-4.62037 0.06065,-8.4006 0.134772,-8.40052 0.07413,9e-5 2.485141,2.35273 5.357813,5.2281 l 5.22304,5.22794 v 15.93873 15.93872 l -5.357813,1.8e-4 -5.357812,1.7e-4 z m 25.532292,-6.6809 v -13.89063 h 7.67292 7.67291 V 155.24688 148.5 H 116.24479 105 v -6.87916 -6.87917 h 11.24479 11.24479 v -6.08542 -6.08541 h -7.67291 -7.67292 v -12.7 -12.7 h 5.28748 5.28748 l 0.0703,7.34218 0.0703,7.34219 2.51354,0.0389 c 4.16238,0.0644 7.74387,1.33779 11.16387,3.96942 5.10516,3.92834 7.83325,11.2583 6.58944,17.70485 -0.56747,2.94112 -2.70381,7.30602 -4.26919,8.72267 -0.51022,0.46174 -0.50447,0.48434 0.40544,1.59477 2.52339,3.07946 4.11793,7.5269 4.12074,11.49339 0.004,5.04999 -1.61522,9.16161 -5.03869,12.79795 -3.5198,3.73865 -8.20677,5.72288 -13.51808,5.72288 h -2.09937 v 7.9375 7.9375 h -5.29166 -5.29167 z"
       id="path1" /></g></svg>
